<svg width="19" height="19" fill="none" xmlns="http://www.w3.org/2000/svg"><path fill-rule="evenodd" clip-rule="evenodd" d="M2.063 2.533A1.256 1.256 0 0 0 .806 3.79v11.305a1.256 1.256 0 0 0 1.257 1.257h11.305a1.256 1.256 0 0 0 1.257-1.257V10.7a.628.628 0 0 0-1.257 0v4.396H2.063V3.79h4.396a.628.628 0 1 0 0-1.257H2.063zm12.378.184a.628.628 0 0 1 .184.44V6.93a.628.628 0 0 1-1.257 0V4.678l-6.464 6.465a.63.63 0 0 1-1.026-.204.629.629 0 0 1 .137-.685L12.48 3.79h-2.252a.628.628 0 1 1 0-1.257h3.768a.627.627 0 0 1 .445.184z" fill="#333"/></svg>