<svg width="22" height="22" fill="none" xmlns="http://www.w3.org/2000/svg"><path fill-rule="evenodd" clip-rule="evenodd" d="M2.388 2.934A1.455 1.455 0 0 0 .934 4.388V17.48a1.454 1.454 0 0 0 1.454 1.454H15.48a1.455 1.455 0 0 0 1.455-1.454v-5.09a.727.727 0 1 0-1.455 0v5.09H2.389V4.389h5.09a.727.727 0 1 0 0-1.455h-5.09zm14.333.212a.727.727 0 0 1 .213.51v4.368a.727.727 0 1 1-1.455 0V5.416l-7.485 7.487a.729.729 0 0 1-1.03-1.03l7.487-7.485h-2.608a.727.727 0 1 1 0-1.454h4.363a.726.726 0 0 1 .515.212z" fill="#333"/></svg>